<svg xmlns="http://www.w3.org/2000/svg" viewBox="0 0 700 600" width="700" height="600" role="img"><defs><pattern id="t-large" width="92" height="92" patternUnits="userSpaceOnUse"><rect width="92" height="92" fill="#E9DBA9"/><rect x="20.2" width="5.5" height="92" fill="#CBB465" opacity="0.6"/><rect x="44.2" width="8.3" height="92" fill="#8D7738" opacity="0.58"/><rect x="52.4" width="1.8" height="92" fill="#EBECEA" opacity="0.72"/><rect x="54.3" width="8.3" height="92" fill="#8D7738" opacity="0.58"/><rect x="81" width="4.6" height="92" fill="#625239" opacity="0.66"/><rect x="85.6" width="1.8" height="92" fill="#AD4039" opacity="0.78"/><rect x="87.4" width="4.6" height="92" fill="#625239" opacity="0.66"/><rect y="20.2" width="92" height="5.5" fill="#CBB465" opacity="0.6"/><rect y="44.2" width="92" height="8.3" fill="#8D7738" opacity="0.58"/><rect y="52.4" width="92" height="1.8" fill="#EBECEA" opacity="0.72"/><rect y="54.3" width="92" height="8.3" fill="#8D7738" opacity="0.58"/><rect y="81" width="92" height="4.6" fill="#625239" opacity="0.66"/><rect y="85.6" width="92" height="1.8" fill="#AD4039" opacity="0.78"/><rect y="87.4" width="92" height="4.6" fill="#625239" opacity="0.66"/></pattern><pattern id="t-large-bias" width="92" height="92" patternUnits="userSpaceOnUse" patternTransform="rotate(45)"><rect width="92" height="92" fill="#E9DBA9"/><rect x="20.2" width="5.5" height="92" fill="#CBB465" opacity="0.6"/><rect x="44.2" width="8.3" height="92" fill="#8D7738" opacity="0.58"/><rect x="52.4" width="1.8" height="92" fill="#EBECEA" opacity="0.72"/><rect x="54.3" width="8.3" height="92" fill="#8D7738" opacity="0.58"/><rect x="81" width="4.6" height="92" fill="#625239" opacity="0.66"/><rect x="85.6" width="1.8" height="92" fill="#AD4039" opacity="0.78"/><rect x="87.4" width="4.6" height="92" fill="#625239" opacity="0.66"/><rect y="20.2" width="92" height="5.5" fill="#CBB465" opacity="0.6"/><rect y="44.2" width="92" height="8.3" fill="#8D7738" opacity="0.58"/><rect y="52.4" width="92" height="1.8" fill="#EBECEA" opacity="0.72"/><rect y="54.3" width="92" height="8.3" fill="#8D7738" opacity="0.58"/><rect y="81" width="92" height="4.6" fill="#625239" opacity="0.66"/><rect y="85.6" width="92" height="1.8" fill="#AD4039" opacity="0.78"/><rect y="87.4" width="92" height="4.6" fill="#625239" opacity="0.66"/></pattern><pattern id="t-medium" width="46" height="46" patternUnits="userSpaceOnUse"><rect width="46" height="46" fill="#E9DBA9"/><rect x="10.1" width="2.8" height="46" fill="#CBB465" opacity="0.6"/><rect x="22.1" width="4.1" height="46" fill="#8D7738" opacity="0.58"/><rect x="26.2" width="0.9" height="46" fill="#EBECEA" opacity="0.72"/><rect x="27.1" width="4.1" height="46" fill="#8D7738" opacity="0.58"/><rect x="40.5" width="2.3" height="46" fill="#625239" opacity="0.66"/><rect x="42.8" width="0.9" height="46" fill="#AD4039" opacity="0.78"/><rect x="43.7" width="2.3" height="46" fill="#625239" opacity="0.66"/><rect y="10.1" width="46" height="2.8" fill="#CBB465" opacity="0.6"/><rect y="22.1" width="46" height="4.1" fill="#8D7738" opacity="0.58"/><rect y="26.2" width="46" height="0.9" fill="#EBECEA" opacity="0.72"/><rect y="27.1" width="46" height="4.1" fill="#8D7738" opacity="0.58"/><rect y="40.5" width="46" height="2.3" fill="#625239" opacity="0.66"/><rect y="42.8" width="46" height="0.9" fill="#AD4039" opacity="0.78"/><rect y="43.7" width="46" height="2.3" fill="#625239" opacity="0.66"/></pattern><pattern id="t-medium-bias" width="46" height="46" patternUnits="userSpaceOnUse" patternTransform="rotate(45)"><rect width="46" height="46" fill="#E9DBA9"/><rect x="10.1" width="2.8" height="46" fill="#CBB465" opacity="0.6"/><rect x="22.1" width="4.1" height="46" fill="#8D7738" opacity="0.58"/><rect x="26.2" width="0.9" height="46" fill="#EBECEA" opacity="0.72"/><rect x="27.1" width="4.1" height="46" fill="#8D7738" opacity="0.58"/><rect x="40.5" width="2.3" height="46" fill="#625239" opacity="0.66"/><rect x="42.8" width="0.9" height="46" fill="#AD4039" opacity="0.78"/><rect x="43.7" width="2.3" height="46" fill="#625239" opacity="0.66"/><rect y="10.1" width="46" height="2.8" fill="#CBB465" opacity="0.6"/><rect y="22.1" width="46" height="4.1" fill="#8D7738" opacity="0.58"/><rect y="26.2" width="46" height="0.9" fill="#EBECEA" opacity="0.72"/><rect y="27.1" width="46" height="4.1" fill="#8D7738" opacity="0.58"/><rect y="40.5" width="46" height="2.3" fill="#625239" opacity="0.66"/><rect y="42.8" width="46" height="0.9" fill="#AD4039" opacity="0.78"/><rect y="43.7" width="46" height="2.3" fill="#625239" opacity="0.66"/></pattern><pattern id="t-small" width="21" height="21" patternUnits="userSpaceOnUse"><rect width="21" height="21" fill="#E9DBA9"/><rect x="4.6" width="1.3" height="21" fill="#CBB465" opacity="0.6"/><rect x="10.1" width="1.9" height="21" fill="#8D7738" opacity="0.58"/><rect x="12" width="0.4" height="21" fill="#EBECEA" opacity="0.72"/><rect x="12.4" width="1.9" height="21" fill="#8D7738" opacity="0.58"/><rect x="18.5" width="1.1" height="21" fill="#625239" opacity="0.66"/><rect x="19.5" width="0.4" height="21" fill="#AD4039" opacity="0.78"/><rect x="19.9" width="1.1" height="21" fill="#625239" opacity="0.66"/><rect y="4.6" width="21" height="1.3" fill="#CBB465" opacity="0.6"/><rect y="10.1" width="21" height="1.9" fill="#8D7738" opacity="0.58"/><rect y="12" width="21" height="0.4" fill="#EBECEA" opacity="0.72"/><rect y="12.4" width="21" height="1.9" fill="#8D7738" opacity="0.58"/><rect y="18.5" width="21" height="1.1" fill="#625239" opacity="0.66"/><rect y="19.5" width="21" height="0.4" fill="#AD4039" opacity="0.78"/><rect y="19.9" width="21" height="1.1" fill="#625239" opacity="0.66"/></pattern><pattern id="t-small-bias" width="21" height="21" patternUnits="userSpaceOnUse" patternTransform="rotate(45)"><rect width="21" height="21" fill="#E9DBA9"/><rect x="4.6" width="1.3" height="21" fill="#CBB465" opacity="0.6"/><rect x="10.1" width="1.9" height="21" fill="#8D7738" opacity="0.58"/><rect x="12" width="0.4" height="21" fill="#EBECEA" opacity="0.72"/><rect x="12.4" width="1.9" height="21" fill="#8D7738" opacity="0.58"/><rect x="18.5" width="1.1" height="21" fill="#625239" opacity="0.66"/><rect x="19.5" width="0.4" height="21" fill="#AD4039" opacity="0.78"/><rect x="19.9" width="1.1" height="21" fill="#625239" opacity="0.66"/><rect y="4.6" width="21" height="1.3" fill="#CBB465" opacity="0.6"/><rect y="10.1" width="21" height="1.9" fill="#8D7738" opacity="0.58"/><rect y="12" width="21" height="0.4" fill="#EBECEA" opacity="0.72"/><rect y="12.4" width="21" height="1.9" fill="#8D7738" opacity="0.58"/><rect y="18.5" width="21" height="1.1" fill="#625239" opacity="0.66"/><rect y="19.5" width="21" height="0.4" fill="#AD4039" opacity="0.78"/><rect y="19.9" width="21" height="1.1" fill="#625239" opacity="0.66"/></pattern></defs><rect width="700" height="600" fill="#F2EDE2"/><rect y="452" width="700" height="148" fill="#E2D7C2"/><rect y="446" width="700" height="7" fill="#D6C8AE"/><path d="M96,0 L214,0 L172,446 L54,446 Z" fill="#FFFFFF" opacity=".34"/><rect x="16" y="74" width="180" height="474" rx="5" fill="#B48A5C"/><rect x="30" y="88" width="152" height="446" rx="3" fill="#E7EBE7"/><path d="M30,88 L110,88 L30,310 Z" fill="#FFFFFF" opacity=".5"/><rect x="516" y="168" width="8" height="330" fill="#8E6B45"/><rect x="662" y="168" width="8" height="330" fill="#8E6B45"/><rect x="512" y="168" width="162" height="8" rx="4" fill="#8E6B45"/><path d="M530,181 l8,-8 l8,8" stroke="#8E6B45" stroke-width="2.4" fill="none"/><path d="M526,186 L550,186 L556,300 L520,300 Z" fill="#F0F0EB"/><path d="M562,181 l8,-8 l8,8" stroke="#8E6B45" stroke-width="2.4" fill="none"/><path d="M558,186 L582,186 L588,300 L552,300 Z" fill="url(#t-small)"/><path d="M594,181 l8,-8 l8,8" stroke="#8E6B45" stroke-width="2.4" fill="none"/><path d="M590,186 L614,186 L620,300 L584,300 Z" fill="#D3D3C7"/><path d="M626,181 l8,-8 l8,8" stroke="#8E6B45" stroke-width="2.4" fill="none"/><path d="M622,186 L646,186 L652,300 L616,300 Z" fill="#414C3B"/><g opacity=".92"><path d="M78.8,313.2 C78.8,341.2 84,357.9 84,385.9 C84,410.2 89.1,424.9 89.1,449.2 L99.7,449.2 99.7,449.2 C99.7,424.9 102.5,410.2 102.5,385.9 C102.5,357.9 106.5,341.2 106.5,313.2 Z" fill="#E6C7AC"/><path d="M88.1,451.2 L100.7,451.2 L103.7,462.2 L85.1,462.2 Z" fill="#35312A"/><path d="M105.5,313.2 C105.5,341.2 109.5,357.9 109.5,385.9 C109.5,410.2 112.3,424.9 112.3,449.2 L122.9,449.2 122.9,449.2 C122.9,424.9 128,410.2 128,385.9 C128,357.9 133.2,341.2 133.2,313.2 Z" fill="#E6C7AC"/><path d="M111.3,451.2 L123.9,451.2 L126.9,462.2 L108.3,462.2 Z" fill="#35312A"/><rect x="100.1" y="204.3" width="11.9" height="21.2" fill="#E6C7AC"/><path d="M77,221.5 C77,233.3 80.9,240.4 80.9,252.1 C80.9,264.7 86.9,272.2 86.9,284.7 C86.9,297.2 77,304.7 77,317.2 L135,317.2 135,317.2 C135,304.7 125.1,297.2 125.1,284.7 C125.1,272.2 131.1,264.7 131.1,252.1 C131.1,240.4 135,233.3 135,221.5 Z" fill="#E6C7AC"/><ellipse cx="115" cy="203.8" rx="13" ry="11" fill="#3A2F28"/><ellipse cx="106" cy="193.2" rx="12.540000000000001" ry="17.16" fill="#3A2F28"/><path d="M72.7,225.5 C72.7,238.8 68.1,246.8 68.1,260.1 C68.1,276.5 69,286.3 69,302.7 C69,318.3 71.7,327.6 71.7,343.2 L78.3,343.2 78.3,343.2 C78.3,327.6 78.2,318.3 78.2,302.7 C78.2,286.3 79.9,276.5 79.9,260.1 C79.9,246.8 85.2,238.8 85.2,225.5 Z" fill="#E6C7AC"/><path d="M126.8,225.5 C126.8,238.8 132.1,246.8 132.1,260.1 C132.1,276.5 133.8,286.3 133.8,302.7 C133.8,318.3 133.7,327.6 133.7,343.2 L140.3,343.2 140.3,343.2 C140.3,327.6 143,318.3 143,302.7 C143,286.3 143.9,276.5 143.9,260.1 C143.9,246.8 139.3,238.8 139.3,225.5 Z" fill="#E6C7AC"/><path d="M72,313.2 L140,313.2 C150.5,385.2 176,419.2 176,433.2 Q106,446.2 36,433.2 C36,419.2 61.5,385.2 72,313.2 Z" fill="#D3D3C7"/><path d="M72,221.5 C72,233.3 75.9,240.4 75.9,252.1 C75.9,264.7 81.9,272.2 81.9,284.7 C81.9,294.9 72,301 72,311.2 L140,311.2 140,311.2 C140,301 130.1,294.9 130.1,284.7 C130.1,272.2 136.1,264.7 136.1,252.1 C136.1,240.4 140,233.3 140,221.5 Z" fill="#F0F0EB"/><ellipse cx="106" cy="220.5" rx="10.9" ry="9" fill="#E6C7AC"/></g><g transform="translate(350,540) scale(1.12) translate(-350,-540)"><path d="M308.8,314 C308.8,351.1 316.6,373.4 316.6,410.6 C316.6,443.4 324.4,463.1 324.4,496 L340.4,496 340.4,496 C340.4,463.1 344.6,443.4 344.6,410.6 C344.6,373.4 350.8,351.1 350.8,314 Z" fill="#E6C7AC"/><path d="M323.4,498 L341.4,498 L344.4,509 L320.4,509 Z" fill="#35312A"/><path d="M349.2,314 C349.2,351.1 355.4,373.4 355.4,410.6 C355.4,443.4 359.6,463.1 359.6,496 L375.6,496 375.6,496 C375.6,463.1 383.4,443.4 383.4,410.6 C383.4,373.4 391.2,351.1 391.2,314 Z" fill="#E6C7AC"/><path d="M358.6,498 L376.6,498 L379.6,509 L355.6,509 Z" fill="#35312A"/><rect x="341" y="131" width="18" height="28" fill="#E6C7AC"/><path d="M306,155 C306,175.1 312,187.1 312,207.2 C312,228.5 320,241.3 320,262.6 C320,283.9 306,296.7 306,318 L394,318 394,318 C394,296.7 380,283.9 380,262.6 C380,241.3 388,228.5 388,207.2 C388,187.1 394,175.1 394,155 Z" fill="#E6C7AC"/><path d="M314,236.6 L386,236.6 C399,292 399,318 399,334 L301,334 C301,318 301,292 314,236.6 Z" fill="url(#t-medium)"/><path d="M301,331 L345,331 L345,492 L294.4,492 Z" fill="url(#t-medium)"/><path d="M355,331 L399,331 L405.6,492 L355,492 Z" fill="url(#t-medium)"/><rect x="313" y="234.6" width="74" height="11" fill="url(#t-medium)"/><path d="M301,155 C301,175.1 307,187.1 307,207.2 C307,225.4 301,236.3 301,254.6 L399,254.6 399,254.6 C399,236.3 393,225.4 393,207.2 C393,187.1 399,175.1 399,155 Z" fill="#35312A"/><ellipse cx="350" cy="154" rx="14" ry="9" fill="#E6C7AC"/><path d="M298.5,159 C298.5,180.6 294.1,193.6 294.1,215.2 C294.1,240.3 296.5,255.4 296.5,280.6 C296.5,305 299,319.6 299,344 L309,344 309,344 C309,319.6 310.5,305 310.5,280.6 C310.5,255.4 311.9,240.3 311.9,215.2 C311.9,193.6 317.5,180.6 317.5,159 Z" fill="#E6C7AC"/><path d="M382.5,159 C382.5,180.6 388.1,193.6 388.1,215.2 C388.1,240.3 389.5,255.4 389.5,280.6 C389.5,305 391,319.6 391,344 L401,344 401,344 C401,319.6 403.5,305 403.5,280.6 C403.5,255.4 405.9,240.3 405.9,215.2 C405.9,193.6 401.5,180.6 401.5,159 Z" fill="#E6C7AC"/><path d="M314,155 Q294,161 298,185 L316,181 Z" fill="#35312A"/><path d="M386,155 Q406,161 402,185 L384,181 Z" fill="#35312A"/><ellipse cx="363.7" cy="128.1" rx="13" ry="11" fill="#3A2F28"/><ellipse cx="350" cy="112" rx="19" ry="26" fill="#E6C7AC"/><path d="M330,114 C330,84.7 370,84.7 370,114 C363.3,102.6 336.7,102.6 330,114 Z" fill="#3A2F28"/><path d="M330,113 q-1,13 3,18.7" stroke="#3A2F28" stroke-width="3.5" fill="none" stroke-linecap="round"/><path d="M370,113 q1,13 -3,18.7" stroke="#3A2F28" stroke-width="3.5" fill="none" stroke-linecap="round"/><path d="M338.3,113 q3.2,-2.6 6.4,0" stroke="#2E2A24" stroke-width="1.7" fill="none" stroke-linecap="round"/><path d="M355.3,113 q3.2,-2.6 6.4,0" stroke="#2E2A24" stroke-width="1.7" fill="none" stroke-linecap="round"/><path d="M347.4,124.5 q2.6,2.4 5.2,0" stroke="#A8554C" stroke-width="1.7" fill="none" stroke-linecap="round"/><circle cx="329" cy="117" r="2.2" fill="#CBB465"/><circle cx="371" cy="117" r="2.2" fill="#CBB465"/></g></svg>